<svg width="19" height="14" viewBox="0 0 19 14" fill="none" xmlns="http://www.w3.org/2000/svg">
<path d="M7.71875 0C7.24633 0 6.79326 0.170192 6.45922 0.473135C6.12517 0.776079 5.9375 1.18696 5.9375 1.61538V2.15385H1.78125C1.30883 2.15385 0.855765 2.32404 0.521716 2.62698C0.187667 2.92992 0 3.3408 0 3.76923L0 5.25969L9.04163 7.44585C9.34197 7.51838 9.65802 7.51838 9.95837 7.44585L19 5.25969V3.76923C19 3.3408 18.8123 2.92992 18.4783 2.62698C18.1442 2.32404 17.6912 2.15385 17.2188 2.15385H13.0625V1.61538C13.0625 1.18696 12.8748 0.776079 12.5408 0.473135C12.2067 0.170192 11.7537 0 11.2812 0H7.71875ZM7.71875 1.07692H11.2812C11.4387 1.07692 11.5897 1.13365 11.7011 1.23463C11.8124 1.33562 11.875 1.47258 11.875 1.61538V2.15385H7.125V1.61538C7.125 1.47258 7.18756 1.33562 7.29891 1.23463C7.41025 1.13365 7.56128 1.07692 7.71875 1.07692Z" fill="white" fill-opacity="0.7"/>
<path d="M0 12.3846C0 12.813 0.187667 13.2239 0.521716 13.5269C0.855765 13.8298 1.30883 14 1.78125 14H17.2188C17.6912 14 18.1442 13.8298 18.4783 13.5269C18.8123 13.2239 19 12.813 19 12.3846V6.29999L9.65319 8.5583C9.55282 8.5826 9.44718 8.5826 9.34681 8.5583L0 6.29999V12.3846Z" fill="white" fill-opacity="0.7"/>
</svg>
