<svg width="20" height="20" viewBox="0 0 20 20" fill="none" xmlns="http://www.w3.org/2000/svg">
<path d="M19.1013 17.3784H1.62928C1.2091 17.3784 0.869629 17.7179 0.869629 18.1381V18.9927C0.869629 19.0971 0.95509 19.1826 1.05954 19.1826H19.671C19.7755 19.1826 19.8609 19.0971 19.8609 18.9927V18.1381C19.8609 17.7179 19.5215 17.3784 19.1013 17.3784ZM4.32842 15.3843C4.3759 15.3843 4.42338 15.3796 4.47086 15.3725L8.46378 14.6722C8.51126 14.6627 8.55637 14.6413 8.5896 14.6057L18.6526 4.54267C18.6746 4.52071 18.6921 4.49462 18.704 4.4659C18.7159 4.43719 18.722 4.4064 18.722 4.37531C18.722 4.34422 18.7159 4.31343 18.704 4.28471C18.6921 4.256 18.6746 4.22991 18.6526 4.20795L14.7072 0.260128C14.6621 0.215023 14.6027 0.191284 14.5386 0.191284C14.4745 0.191284 14.4152 0.215023 14.3701 0.260128L4.30706 10.3232C4.27145 10.3588 4.25008 10.4015 4.24059 10.449L3.54028 14.4419C3.51719 14.5691 3.52544 14.7 3.56432 14.8232C3.60321 14.9465 3.67155 15.0584 3.76343 15.1493C3.92011 15.3013 4.11714 15.3843 4.32842 15.3843Z" fill="white"/>
</svg>
