<svg width="427" height="91" viewBox="0 0 427 91" fill="none" xmlns="http://www.w3.org/2000/svg">
<path d="M164.43 33.25H145.49V62.125H164.43V33.25Z" fill="white"/>
<path d="M150.655 26.25C137.838 26.25 127.411 36.8482 127.411 49.875C127.411 62.9018 137.838 73.5 150.655 73.5C163.472 73.5 173.899 62.9018 173.899 49.875C173.899 36.8482 163.472 26.25 150.655 26.25ZM164.021 52.2375H148.331V35.7H152.98V47.5125H164.021V52.2375Z" fill="url(#paint0_linear)"/>
<path d="M37.1806 15.1375C39.419 15.1375 41.8294 15.3709 44.4121 15.8375C47.0521 16.2459 48.6017 16.4791 49.0609 16.5375L48.8887 23.1C43.8381 22.1666 39.9355 21.7 37.1806 21.7C33.2779 21.7 30.4657 22.5166 28.744 24.15C27.0222 25.7833 26.1613 28.4958 26.1613 32.2875V57.3125C26.1613 61.1041 26.9934 63.8166 28.6579 65.45C30.3796 67.025 33.2206 67.8125 37.1806 67.8125C39.9355 67.8125 43.8381 67.3458 48.8887 66.4125L49.0609 73.15C48.6017 73.2083 47.0521 73.4416 44.4121 73.85C41.8294 74.3166 39.419 74.55 37.1806 74.55C30.5805 74.55 25.8743 73.1209 23.0621 70.2625C20.2498 67.4041 18.8438 62.9416 18.8438 56.875V32.8125C18.8438 26.7458 20.2498 22.2834 23.0621 19.425C25.8743 16.5666 30.5805 15.1375 37.1806 15.1375ZM67.1039 36.4875C70.2604 31.9958 73.9336 29.75 78.1232 29.75C81.7963 29.75 84.6086 31.0333 86.5597 33.6C88.569 36.1083 89.5728 39.6958 89.5728 44.3625V73.5H82.2555V45.4125C82.2555 39.5791 80.3902 36.6625 76.6597 36.6625C74.9953 36.6625 73.3023 37.3041 71.5805 38.5875C69.8587 39.8708 68.3665 41.6208 67.1039 43.8375V73.5H59.7863V13.7375H67.1039V36.4875ZM119.57 29.75C120.374 29.75 121.005 29.8083 121.464 29.925V38.325C120.603 38.15 119.484 38.0625 118.107 38.0625C114.089 38.0625 110.904 40.1041 108.551 44.1875V73.5H101.233V30.8H108.121V37.1875C109.67 34.7958 111.392 32.9583 113.286 31.675C115.237 30.3916 117.332 29.75 119.57 29.75Z" fill="white"/>
<path d="M202.725 29.75C206.398 29.75 209.21 31.0334 211.162 33.6C213.17 36.1084 214.175 39.6959 214.175 44.3625V73.5H206.857V45.4125C206.857 39.5791 204.992 36.6625 201.262 36.6625C199.597 36.6625 197.904 37.3041 196.182 38.5875C194.461 39.8709 192.968 41.6209 191.706 43.8375V73.5H184.388V30.8H191.275V37.1875C192.825 34.7959 194.547 32.9584 196.441 31.675C198.391 30.3916 200.487 29.75 202.725 29.75Z" fill="white"/>
<path d="M245.783 35.4375V51.1875L256.544 61.6875L260.418 57.75L251.809 49V38.0625" stroke="black"/>
<path d="M284.278 30.8H295.469V36.925H284.278V61.95C284.278 64.1666 284.708 65.7708 285.569 66.7625C286.488 67.6959 287.894 68.1625 289.788 68.1625C292.198 68.1625 294.551 67.8708 296.847 67.2875L297.019 73.5C294.494 74.2 292.198 74.55 290.132 74.55C285.541 74.55 282.183 73.5291 280.059 71.4875C277.993 69.3875 276.96 66.0041 276.96 61.3375V36.925H270.934V30.8H276.96L278.338 19.425H284.278V30.8ZM317.585 29.75C322.52 29.75 326.107 30.8875 328.346 33.1625C330.642 35.3791 331.789 38.9375 331.789 43.8375V73.5H324.816V66.675C321.487 71.925 317.728 74.55 313.539 74.55C310.209 74.55 307.541 73.3833 305.532 71.05C303.581 68.7166 302.605 65.5375 302.605 61.5125V59.0625C302.605 55.5625 303.782 52.675 306.135 50.4C308.488 48.0666 311.645 46.9 315.605 46.9C317.785 46.9 320.742 47.2791 324.472 48.0375V43.225C324.472 40.7166 323.898 38.9083 322.75 37.8C321.659 36.6916 319.937 36.1375 317.585 36.1375C314.83 36.1375 310.956 36.575 305.963 37.45V31.0625C311.358 30.1875 315.232 29.75 317.585 29.75ZM317.413 52.675C315.002 52.675 313.166 53.3166 311.903 54.6C310.64 55.8833 310.009 57.6916 310.009 60.025V60.9875C310.009 63.1458 310.497 64.8375 311.472 66.0625C312.448 67.2875 313.682 67.9 315.174 67.9C316.724 67.9 318.302 67.2291 319.909 65.8875C321.573 64.4875 323.094 62.5333 324.472 60.025V53.2875C322.291 52.8791 319.938 52.675 317.413 52.675ZM355.483 29.75C357.893 29.75 360.791 30.1 364.178 30.8L364.005 37.1C361.021 36.4 358.294 36.05 355.827 36.05C350.662 36.05 348.079 37.7416 348.079 41.125V41.9125C348.079 42.9625 348.337 43.8083 348.854 44.45C349.427 45.0916 350.432 45.7625 351.867 46.4625L359.959 50.3125C364.837 52.6458 367.277 56.0583 367.277 60.55V62.475C367.219 66.5 366.014 69.5334 363.661 71.575C361.365 73.5584 357.721 74.55 352.728 74.55C350.145 74.55 346.443 73.9375 341.622 72.7125L341.967 66.0625C346.271 67.3458 349.801 67.9875 352.556 67.9875C355.367 67.9875 357.319 67.6083 358.41 66.85C359.5 66.0333 360.045 64.7208 360.045 62.9125V62.0375C360.045 60.6375 359.758 59.5291 359.184 58.7125C358.668 57.8958 357.778 57.1958 356.516 56.6125L348.165 52.85C345.639 51.6833 343.775 50.2833 342.569 48.65C341.421 47.0166 340.848 45.1208 340.848 42.9625V41.7375C340.962 37.7708 342.167 34.7958 344.463 32.8125C346.816 30.7708 350.49 29.75 355.483 29.75ZM383.619 13.7375V49.525L397.393 30.8H405.572L391.281 49.525L406.605 73.5H397.824L383.619 50.575V73.5H376.301V13.7375H383.619Z" fill="white"/>
<path d="M256.544 35H241.909V62.125H256.544V35Z" fill="white"/>
<path d="M244.492 26.25C231.675 26.25 221.248 36.8482 221.248 49.875C221.248 62.9018 231.675 73.5 244.492 73.5C257.309 73.5 267.736 62.9018 267.736 49.875C267.736 36.8482 257.309 26.25 244.492 26.25ZM252.146 60.9953L242.168 50.8531V35.7H246.816V48.8969L255.433 57.6547L252.146 60.9953Z" fill="url(#paint1_linear)"/>
<path d="M164.43 33.25H145.49V62.125H164.43V33.25Z" fill="white"/>
<path d="M150.655 26.25C137.838 26.25 127.411 36.8482 127.411 49.875C127.411 62.9018 137.838 73.5 150.655 73.5C163.472 73.5 173.899 62.9018 173.899 49.875C173.899 36.8482 163.472 26.25 150.655 26.25ZM164.021 52.2375H148.331V35.7H152.98V47.5125H164.021V52.2375Z" fill="url(#paint2_linear)"/>
<path d="M37.1806 15.1375C39.419 15.1375 41.8294 15.3709 44.4121 15.8375C47.0521 16.2459 48.6017 16.4791 49.0609 16.5375L48.8887 23.1C43.8381 22.1666 39.9355 21.7 37.1806 21.7C33.2779 21.7 30.4657 22.5166 28.744 24.15C27.0222 25.7833 26.1613 28.4958 26.1613 32.2875V57.3125C26.1613 61.1041 26.9934 63.8166 28.6579 65.45C30.3796 67.025 33.2206 67.8125 37.1806 67.8125C39.9355 67.8125 43.8381 67.3458 48.8887 66.4125L49.0609 73.15C48.6017 73.2083 47.0521 73.4416 44.4121 73.85C41.8294 74.3166 39.419 74.55 37.1806 74.55C30.5805 74.55 25.8743 73.1209 23.0621 70.2625C20.2498 67.4041 18.8438 62.9416 18.8438 56.875V32.8125C18.8438 26.7458 20.2498 22.2834 23.0621 19.425C25.8743 16.5666 30.5805 15.1375 37.1806 15.1375ZM67.1039 36.4875C70.2604 31.9958 73.9336 29.75 78.1232 29.75C81.7963 29.75 84.6086 31.0333 86.5597 33.6C88.569 36.1083 89.5728 39.6958 89.5728 44.3625V73.5H82.2555V45.4125C82.2555 39.5791 80.3902 36.6625 76.6597 36.6625C74.9953 36.6625 73.3023 37.3041 71.5805 38.5875C69.8587 39.8708 68.3665 41.6208 67.1039 43.8375V73.5H59.7863V13.7375H67.1039V36.4875ZM119.57 29.75C120.374 29.75 121.005 29.8083 121.464 29.925V38.325C120.603 38.15 119.484 38.0625 118.107 38.0625C114.089 38.0625 110.904 40.1041 108.551 44.1875V73.5H101.233V30.8H108.121V37.1875C109.67 34.7958 111.392 32.9583 113.286 31.675C115.237 30.3916 117.332 29.75 119.57 29.75Z" fill="white"/>
<path d="M202.725 29.75C206.398 29.75 209.21 31.0334 211.162 33.6C213.17 36.1084 214.175 39.6959 214.175 44.3625V73.5H206.857V45.4125C206.857 39.5791 204.992 36.6625 201.262 36.6625C199.597 36.6625 197.904 37.3041 196.182 38.5875C194.461 39.8709 192.968 41.6209 191.706 43.8375V73.5H184.388V30.8H191.275V37.1875C192.825 34.7959 194.547 32.9584 196.441 31.675C198.391 30.3916 200.487 29.75 202.725 29.75Z" fill="white"/>
<path d="M245.783 35.4375V51.1875L256.544 61.6875L260.418 57.75L251.809 49V38.0625" stroke="black"/>
<path d="M284.278 30.8H295.469V36.925H284.278V61.95C284.278 64.1666 284.708 65.7708 285.569 66.7625C286.488 67.6959 287.894 68.1625 289.788 68.1625C292.198 68.1625 294.551 67.8708 296.847 67.2875L297.019 73.5C294.494 74.2 292.198 74.55 290.132 74.55C285.541 74.55 282.183 73.5291 280.059 71.4875C277.993 69.3875 276.96 66.0041 276.96 61.3375V36.925H270.934V30.8H276.96L278.338 19.425H284.278V30.8ZM317.585 29.75C322.52 29.75 326.107 30.8875 328.346 33.1625C330.642 35.3791 331.789 38.9375 331.789 43.8375V73.5H324.816V66.675C321.487 71.925 317.728 74.55 313.539 74.55C310.209 74.55 307.541 73.3833 305.532 71.05C303.581 68.7166 302.605 65.5375 302.605 61.5125V59.0625C302.605 55.5625 303.782 52.675 306.135 50.4C308.488 48.0666 311.645 46.9 315.605 46.9C317.785 46.9 320.742 47.2791 324.472 48.0375V43.225C324.472 40.7166 323.898 38.9083 322.75 37.8C321.659 36.6916 319.937 36.1375 317.585 36.1375C314.83 36.1375 310.956 36.575 305.963 37.45V31.0625C311.358 30.1875 315.232 29.75 317.585 29.75ZM317.413 52.675C315.002 52.675 313.166 53.3166 311.903 54.6C310.64 55.8833 310.009 57.6916 310.009 60.025V60.9875C310.009 63.1458 310.497 64.8375 311.472 66.0625C312.448 67.2875 313.682 67.9 315.174 67.9C316.724 67.9 318.302 67.2291 319.909 65.8875C321.573 64.4875 323.094 62.5333 324.472 60.025V53.2875C322.291 52.8791 319.938 52.675 317.413 52.675ZM355.483 29.75C357.893 29.75 360.791 30.1 364.178 30.8L364.005 37.1C361.021 36.4 358.294 36.05 355.827 36.05C350.662 36.05 348.079 37.7416 348.079 41.125V41.9125C348.079 42.9625 348.337 43.8083 348.854 44.45C349.427 45.0916 350.432 45.7625 351.867 46.4625L359.959 50.3125C364.837 52.6458 367.277 56.0583 367.277 60.55V62.475C367.219 66.5 366.014 69.5334 363.661 71.575C361.365 73.5584 357.721 74.55 352.728 74.55C350.145 74.55 346.443 73.9375 341.622 72.7125L341.967 66.0625C346.271 67.3458 349.801 67.9875 352.556 67.9875C355.367 67.9875 357.319 67.6083 358.41 66.85C359.5 66.0333 360.045 64.7208 360.045 62.9125V62.0375C360.045 60.6375 359.758 59.5291 359.184 58.7125C358.668 57.8958 357.778 57.1958 356.516 56.6125L348.165 52.85C345.639 51.6833 343.775 50.2833 342.569 48.65C341.421 47.0166 340.848 45.1208 340.848 42.9625V41.7375C340.962 37.7708 342.167 34.7958 344.463 32.8125C346.816 30.7708 350.49 29.75 355.483 29.75ZM383.619 13.7375V49.525L397.393 30.8H405.572L391.281 49.525L406.605 73.5H397.824L383.619 50.575V73.5H376.301V13.7375H383.619Z" fill="white"/>
<path d="M256.544 35H241.909V62.125H256.544V35Z" fill="white"/>
<path d="M244.492 26.25C231.675 26.25 221.248 36.8482 221.248 49.875C221.248 62.9018 231.675 73.5 244.492 73.5C257.309 73.5 267.736 62.9018 267.736 49.875C267.736 36.8482 257.309 26.25 244.492 26.25ZM252.146 60.9953L242.168 50.8531V35.7H246.816V48.8969L255.433 57.6547L252.146 60.9953Z" fill="url(#paint3_linear)"/>
<defs>
<linearGradient id="paint0_linear" x1="127.411" y1="26.25" x2="180.898" y2="86.6384" gradientUnits="userSpaceOnUse">
<stop stop-color="#5211DD"/>
<stop offset="1" stop-color="#1FF5DF"/>
</linearGradient>
<linearGradient id="paint1_linear" x1="225.552" y1="26.25" x2="263.37" y2="78.1677" gradientUnits="userSpaceOnUse">
<stop stop-color="#6322EE"/>
<stop offset="1" stop-color="#1FF5DF"/>
</linearGradient>
<linearGradient id="paint2_linear" x1="127.411" y1="26.25" x2="180.898" y2="86.6384" gradientUnits="userSpaceOnUse">
<stop stop-color="#5211DD"/>
<stop offset="1" stop-color="#1FF5DF"/>
</linearGradient>
<linearGradient id="paint3_linear" x1="225.552" y1="26.25" x2="263.37" y2="78.1677" gradientUnits="userSpaceOnUse">
<stop stop-color="#6322EE"/>
<stop offset="1" stop-color="#1FF5DF"/>
</linearGradient>
</defs>
</svg>
