<svg width="19" height="20" viewBox="0 0 19 20" fill="none" xmlns="http://www.w3.org/2000/svg">
<path d="M18.2088 3.60972H15.0436V1.71059C15.0436 0.872598 14.3339 0.191284 13.461 0.191284H5.54792C4.67501 0.191284 3.96531 0.872598 3.96531 1.71059V3.60972H0.800094C0.362403 3.60972 0.00878906 3.94919 0.00878906 4.36937V5.12903C0.00878906 5.23348 0.0978109 5.31894 0.206615 5.31894H1.7002L2.31099 17.7345C2.35056 18.544 3.04789 19.1826 3.89113 19.1826H15.1178C15.9635 19.1826 16.6583 18.5464 16.6979 17.7345L17.3087 5.31894H18.8023C18.9111 5.31894 19.0001 5.23348 19.0001 5.12903V4.36937C19.0001 3.94919 18.6465 3.60972 18.2088 3.60972ZM13.2631 3.60972H5.74575V1.9005H13.2631V3.60972Z" fill="white"/>
</svg>
