<svg width="19" height="14" viewBox="0 0 19 14" fill="none" xmlns="http://www.w3.org/2000/svg">
<path d="M0 11.6667V2.33333C0 1.71449 0.250223 1.121 0.695621 0.683417C1.14102 0.245833 1.74511 0 2.375 0H16.625C17.2549 0 17.859 0.245833 18.3044 0.683417C18.7498 1.121 19 1.71449 19 2.33333V11.6667C19 12.2855 18.7498 12.879 18.3044 13.3166C17.859 13.7542 17.2549 14 16.625 14H2.375C1.74511 14 1.14102 13.7542 0.695621 13.3166C0.250223 12.879 0 12.2855 0 11.6667ZM8.06312 3.6085C7.97434 3.5464 7.86988 3.5095 7.76117 3.50185C7.65246 3.4942 7.54371 3.51609 7.44682 3.56513C7.34994 3.61417 7.26866 3.68846 7.2119 3.77987C7.15513 3.87127 7.12507 3.97626 7.125 4.08333V9.91667C7.12507 10.0237 7.15513 10.1287 7.2119 10.2201C7.26866 10.3115 7.34994 10.3858 7.44682 10.4349C7.54371 10.4839 7.65246 10.5058 7.76117 10.4981C7.86988 10.4905 7.97434 10.4536 8.06312 10.3915L12.2194 7.47483C12.2963 7.42087 12.3591 7.34963 12.4024 7.26704C12.4457 7.18445 12.4682 7.0929 12.4682 7C12.4682 6.9071 12.4457 6.81555 12.4024 6.73296C12.3591 6.65037 12.2963 6.57913 12.2194 6.52517L8.06312 3.6085Z" fill="white" fill-opacity="0.7"/>
</svg>
